<svg width="98" height="137" viewBox="0 0 98 137" fill="none" xmlns="http://www.w3.org/2000/svg">
<path fill-rule="evenodd" clip-rule="evenodd" d="M36.1248 3.13608C50.5106 -0.955889 65.9526 -0.181643 75.5732 1.31491L68.6356 45.9137C72.1639 47.3073 75.9013 49.1119 79.3644 51.4655C84.3235 54.8358 89.313 59.6369 92.9234 66.3736C96.5334 73.1093 98 80.3543 98 87.5C98 99.6546 93.6811 110.489 85.8687 118.783C78.6113 126.489 69.7145 130.576 62.3224 132.82C47.903 137.197 32.3983 136.627 22.7115 135.228L29.354 89.2414C25.8976 87.8911 22.2434 86.1534 18.86 83.9041C13.916 80.6173 8.8634 75.8858 5.18558 69.1636C1.49891 62.4252 0 55.1587 0 48C0 35.7942 4.43228 24.9363 12.4171 16.7194C19.791 9.13125 28.7683 5.2286 36.1248 3.13608ZM48.2878 81.5858C48.288 81.5859 48.2819 81.5895 48.2692 81.5965C48.2813 81.5891 48.2877 81.5857 48.2878 81.5858ZM49.2857 54.5955C49.2854 54.5954 49.2941 54.5904 49.3123 54.5812C49.295 54.5911 49.2859 54.5957 49.2857 54.5955Z" fill="#0E65E7"/>
</svg>
